HIERARCHY
ROOT Hips
{
	OFFSET 0.000000 71.427986 0.000000
	CHANNELS 6 Xposition Yposition Zposition Xrotation Yrotation Zrotation
	JOINT Pelvis
	{
		OFFSET 0.000000 0.000000 0.000000
		CHANNELS 3 Xrotation Yrotation Zrotation
		JOINT LeftUpLeg
		{
			OFFSET 6.797100 -2.508499 -1.318700
			CHANNELS 3 Xrotation Yrotation Zrotation
			JOINT LeftLeg
			{
				OFFSET 0.069008 -29.241863 0.690200
				CHANNELS 3 Xrotation Yrotation Zrotation
				JOINT LeftFoot
				{
					OFFSET -0.069008 -29.568123 -0.266800
					CHANNELS 3 Xrotation Yrotation Zrotation
					JOINT LeftToeBase
					{
						OFFSET 3.145500 -8.631000 16.059900
						CHANNELS 3 Xrotation Yrotation Zrotation
						End Site
						{
							OFFSET 0.000000 18.501587 0.000000
						}
					}
				}
			}
			JOINT Left_ShortSleeve
			{
				OFFSET 0.265923 -10.480953 1.153800
				CHANNELS 3 Xrotation Yrotation Zrotation
				End Site
				{
					OFFSET 1.725763 19.823879 0.000000
				}
			}
		}
		JOINT RightUpLeg
		{
			OFFSET -6.797100 -2.508499 -1.318700
			CHANNELS 3 Xrotation Yrotation Zrotation
			JOINT RightLeg
			{
				OFFSET -0.082453 -29.241932 0.688000
				CHANNELS 3 Xrotation Yrotation Zrotation
				JOINT RightFoot
				{
					OFFSET 0.082453 -29.568058 -0.264600
					CHANNELS 3 Xrotation Yrotation Zrotation
					JOINT RightToeBase
					{
						OFFSET -3.115300 -8.682800 16.113400
						CHANNELS 3 Xrotation Yrotation Zrotation
						End Site
						{
							OFFSET 0.000000 18.567114 0.000000
						}
					}
				}
			}
			JOINT Right_ShortSleeve
			{
				OFFSET -0.265923 -10.480953 1.153800
				CHANNELS 3 Xrotation Yrotation Zrotation
				End Site
				{
					OFFSET -1.725766 19.823910 0.000000
				}
			}
		}
	}
	JOINT Spine
	{
		OFFSET 0.000000 13.368103 0.470500
		CHANNELS 3 Xrotation Yrotation Zrotation
		JOINT Spine1
		{
			OFFSET 0.147000 13.837402 0.538800
			CHANNELS 3 Xrotation Yrotation Zrotation
			JOINT Spine2
			{
				OFFSET 0.168000 16.242897 -1.435500
				CHANNELS 3 Xrotation Yrotation Zrotation
				JOINT Neck
				{
					OFFSET 0.217200 18.631500 -1.679100
					CHANNELS 3 Xrotation Yrotation Zrotation
					JOINT Head
					{
						OFFSET 0.000000 6.599396 1.385900
						CHANNELS 3 Xrotation Yrotation Zrotation
						JOINT Hat
						{
							OFFSET -0.532200 27.220596 -10.096100
							CHANNELS 3 Xrotation Yrotation Zrotation
							End Site
							{
								OFFSET 0.000000 22.029861 0.000000
							}
						}
						JOINT HairD
						{
							OFFSET -10.777400 17.437393 -1.325900
							CHANNELS 3 Xrotation Yrotation Zrotation
							JOINT HairD1
							{
								OFFSET -3.290299 -11.051193 1.062200
								CHANNELS 3 Xrotation Yrotation Zrotation
								End Site
								{
									OFFSET 0.000000 11.579437 0.000000
								}
							}
						}
						JOINT HairB
						{
							OFFSET -10.777400 17.437393 1.467900
							CHANNELS 3 Xrotation Yrotation Zrotation
							JOINT HairB1
							{
								OFFSET -1.561200 -12.956299 3.590200
								CHANNELS 3 Xrotation Yrotation Zrotation
								End Site
								{
									OFFSET 0.000000 13.534866 0.000000
								}
							}
						}
						JOINT HairA
						{
							OFFSET 9.713100 17.437393 1.467900
							CHANNELS 3 Xrotation Yrotation Zrotation
							JOINT HairA1
							{
								OFFSET 1.561200 -12.956299 3.590200
								CHANNELS 3 Xrotation Yrotation Zrotation
								End Site
								{
									OFFSET 0.000000 13.534866 0.000000
								}
							}
						}
						JOINT HairC
						{
							OFFSET 9.713100 17.437393 -1.325900
							CHANNELS 3 Xrotation Yrotation Zrotation
							JOINT HairC1
							{
								OFFSET 3.290300 -11.051193 1.062200
								CHANNELS 3 Xrotation Yrotation Zrotation
								End Site
								{
									OFFSET 0.000000 11.579437 0.000000
								}
							}
						}
					}
				}
				JOINT LeftShoulder
				{
					OFFSET 5.101800 15.108002 -2.763700
					CHANNELS 3 Xrotation Yrotation Zrotation
					JOINT LeftArm
					{
						OFFSET 9.825497 2.506317 -1.597400
						CHANNELS 3 Xrotation Yrotation Zrotation
						JOINT LeftForeArm
						{
							OFFSET 21.966244 0.000000 0.000000
							CHANNELS 3 Xrotation Yrotation Zrotation
							JOINT LeftHand
							{
								OFFSET 33.879036 0.000000 0.000000
								CHANNELS 3 Xrotation Yrotation Zrotation
								JOINT LeftHandThumb1
								{
									OFFSET 6.715286 -2.359680 3.363841
									CHANNELS 3 Xrotation Yrotation Zrotation
									JOINT LeftHandThumb2
									{
										OFFSET 2.507072 -1.447464 1.447461
										CHANNELS 3 Xrotation Yrotation Zrotation
										JOINT LeftHandThumb3
										{
											OFFSET 2.898338 -1.673355 1.673357
											CHANNELS 3 Xrotation Yrotation Zrotation
											End Site
											{
												OFFSET -0.295959 3.727692 -0.131651
											}
										}
									}
								}
								JOINT LeftHandIndex1
								{
									OFFSET 14.190811 -0.254547 3.840278
									CHANNELS 3 Xrotation Yrotation Zrotation
									JOINT LeftHandIndex2
									{
										OFFSET 3.551727 0.000000 -0.000000
										CHANNELS 3 Xrotation Yrotation Zrotation
										JOINT LeftHandIndex3
										{
											OFFSET 2.894196 0.000000 0.000000
											CHANNELS 3 Xrotation Yrotation Zrotation
											End Site
											{
												OFFSET -1.000603 2.690872 0.366626
											}
										}
									}
								}
								JOINT LeftHandMiddle1
								{
									OFFSET 13.776489 0.000000 0.000000
									CHANNELS 3 Xrotation Yrotation Zrotation
									JOINT LeftHandMiddle2
									{
										OFFSET 3.438232 0.000000 0.000000
										CHANNELS 3 Xrotation Yrotation Zrotation
										JOINT LeftHandMiddle3
										{
											OFFSET 3.691551 0.000000 0.000000
											CHANNELS 3 Xrotation Yrotation Zrotation
											End Site
											{
												OFFSET -1.082298 3.499527 0.457670
											}
										}
									}
								}
								JOINT LeftHandRing1
								{
									OFFSET 13.966164 -0.268127 -3.067488
									CHANNELS 3 Xrotation Yrotation Zrotation
									JOINT LeftHandRing2
									{
										OFFSET 3.162567 0.000000 0.000000
										CHANNELS 3 Xrotation Yrotation Zrotation
										JOINT LeftHandRing3
										{
											OFFSET 3.324348 0.000000 0.000000
											CHANNELS 3 Xrotation Yrotation Zrotation
											End Site
											{
												OFFSET -0.861900 3.184998 0.405154
											}
										}
									}
								}
								JOINT LeftHandPinky1
								{
									OFFSET 13.131393 -0.168503 -5.746925
									CHANNELS 3 Xrotation Yrotation Zrotation
									JOINT LeftHandPinky2
									{
										OFFSET 2.849182 0.000000 0.000000
										CHANNELS 3 Xrotation Yrotation Zrotation
										JOINT LeftHandPinky3
										{
											OFFSET 2.805038 0.000000 0.000000
											CHANNELS 3 Xrotation Yrotation Zrotation
											End Site
											{
												OFFSET -0.882500 2.642609 0.325652
											}
										}
									}
								}
							}
							JOINT Left_Sleeve
							{
								OFFSET 6.592125 -0.646545 0.805568
								CHANNELS 3 Xrotation Yrotation Zrotation
								End Site
								{
									OFFSET -0.000179 20.275787 -0.000000
								}
							}
						}
					}
				}
				JOINT RightShoulder
				{
					OFFSET -5.731700 15.108002 -2.763700
					CHANNELS 3 Xrotation Yrotation Zrotation
					JOINT RightArm
					{
						OFFSET -9.825497 2.506317 -1.597400
						CHANNELS 3 Xrotation Yrotation Zrotation
						JOINT RightForeArm
						{
							OFFSET -21.966242 0.000000 0.000000
							CHANNELS 3 Xrotation Yrotation Zrotation
							JOINT RightHand
							{
								OFFSET -33.879032 0.000000 0.000000
								CHANNELS 3 Xrotation Yrotation Zrotation
								JOINT RightHandThumb1
								{
									OFFSET -6.715286 -2.359680 3.363841
									CHANNELS 3 Xrotation Yrotation Zrotation
									JOINT RightHandThumb2
									{
										OFFSET -2.507072 -1.447464 1.447461
										CHANNELS 3 Xrotation Yrotation Zrotation
										JOINT RightHandThumb3
										{
											OFFSET -2.898338 -1.673355 1.673357
											CHANNELS 3 Xrotation Yrotation Zrotation
											End Site
											{
												OFFSET 0.295959 3.727692 -0.131651
											}
										}
									}
								}
								JOINT RightHandIndex1
								{
									OFFSET -14.190811 -0.254547 3.840278
									CHANNELS 3 Xrotation Yrotation Zrotation
									JOINT RightHandIndex2
									{
										OFFSET -3.551727 0.000000 -0.000000
										CHANNELS 3 Xrotation Yrotation Zrotation
										JOINT RightHandIndex3
										{
											OFFSET -2.894196 0.000000 0.000000
											CHANNELS 3 Xrotation Yrotation Zrotation
											End Site
											{
												OFFSET 1.000603 2.690872 0.366626
											}
										}
									}
								}
								JOINT RightHandMiddle1
								{
									OFFSET -13.776489 0.000000 0.000000
									CHANNELS 3 Xrotation Yrotation Zrotation
									JOINT RightHandMiddle2
									{
										OFFSET -3.438232 0.000000 0.000000
										CHANNELS 3 Xrotation Yrotation Zrotation
										JOINT RightHandMiddle3
										{
											OFFSET -3.691551 0.000000 0.000000
											CHANNELS 3 Xrotation Yrotation Zrotation
											End Site
											{
												OFFSET 1.082298 3.499527 0.457670
											}
										}
									}
								}
								JOINT RightHandRing1
								{
									OFFSET -13.966164 -0.268127 -3.067488
									CHANNELS 3 Xrotation Yrotation Zrotation
									JOINT RightHandRing2
									{
										OFFSET -3.162567 0.000000 0.000000
										CHANNELS 3 Xrotation Yrotation Zrotation
										JOINT RightHandRing3
										{
											OFFSET -3.324348 0.000000 0.000000
											CHANNELS 3 Xrotation Yrotation Zrotation
											End Site
											{
												OFFSET 0.861900 3.184998 0.405154
											}
										}
									}
								}
								JOINT RightHandPinky1
								{
									OFFSET -13.131393 -0.168503 -5.746925
									CHANNELS 3 Xrotation Yrotation Zrotation
									JOINT RightHandPinky2
									{
										OFFSET -2.849182 0.000000 0.000000
										CHANNELS 3 Xrotation Yrotation Zrotation
										JOINT RightHandPinky3
										{
											OFFSET -2.805038 0.000000 0.000000
											CHANNELS 3 Xrotation Yrotation Zrotation
											End Site
											{
												OFFSET 0.882500 2.642609 0.325652
											}
										}
									}
								}
							}
							JOINT Right_Sleeve
							{
								OFFSET -6.592125 -0.646545 0.805568
								CHANNELS 3 Xrotation Yrotation Zrotation
								End Site
								{
									OFFSET 0.000179 20.275787 -0.000000
								}
							}
						}
					}
				}
				JOINT Bind_Right_JacketString
				{
					OFFSET -3.534800 11.969597 7.200700
					CHANNELS 3 Xrotation Yrotation Zrotation
					JOINT Bind_Right_JacketString1
					{
						OFFSET -0.319900 -6.102600 2.794100
						CHANNELS 3 Xrotation Yrotation Zrotation
						End Site
						{
							OFFSET 0.000000 6.719452 0.000000
						}
					}
				}
				JOINT Bind_Left_JacketString
				{
					OFFSET 2.904800 11.969597 7.200700
					CHANNELS 3 Xrotation Yrotation Zrotation
					JOINT Bind_Left_JacketString1
					{
						OFFSET 0.364800 -5.904503 3.186800
						CHANNELS 3 Xrotation Yrotation Zrotation
						End Site
						{
							OFFSET 0.000000 6.719513 0.000000
						}
					}
				}
				JOINT HairE
				{
					OFFSET 5.915200 17.612701 -11.592200
					CHANNELS 3 Xrotation Yrotation Zrotation
					JOINT HairE1
					{
						OFFSET 0.289200 -7.171898 -1.284500
						CHANNELS 3 Xrotation Yrotation Zrotation
						End Site
						{
							OFFSET 0.000000 7.291756 0.000000
						}
					}
				}
				JOINT HairF
				{
					OFFSET -0.864800 17.612701 -11.592200
					CHANNELS 3 Xrotation Yrotation Zrotation
					JOINT HairF1
					{
						OFFSET 0.000000 -14.087097 -2.127501
						CHANNELS 3 Xrotation Yrotation Zrotation
						End Site
						{
							OFFSET 0.000000 14.246841 0.000000
						}
					}
				}
				JOINT HairG
				{
					OFFSET -8.087700 17.612701 -11.592200
					CHANNELS 3 Xrotation Yrotation Zrotation
					JOINT HairG1
					{
						OFFSET -0.293600 -6.081398 -0.910100
						CHANNELS 3 Xrotation Yrotation Zrotation
						End Site
						{
							OFFSET 0.000000 6.156120 0.000000
						}
					}
				}
			}
		}
	}
	JOINT Pouch
	{
		OFFSET 0.000000 4.394501 10.847300
		CHANNELS 3 Xrotation Yrotation Zrotation
		End Site
		{
			OFFSET 0.000000 21.880577 0.000000
		}
	}
	JOINT Bag
	{
		OFFSET -13.229000 4.813004 -0.593300
		CHANNELS 3 Xrotation Yrotation Zrotation
		End Site
		{
			OFFSET 0.000000 21.880577 0.000000
		}
	}
	JOINT OccupyGuyFacialAnim_Joint
	{
		OFFSET 1.000000 -70.206398 -1.655000
		CHANNELS 3 Xrotation Yrotation Zrotation
		End Site
		{
			OFFSET 0.000000 21.880577 0.000000
		}
	}
}
MOTION
Frames: 4
Frame Time: 0.033333
-0.196566 69.933517 1.488312 -2.387244 0.044638 -2.085934 -0.000000 -0.000000 0.000000 -27.284067 4.373688 5.657861 61.447578 1.461799 0.577062 -5.011833 0.703428 -7.711555 0.000002 0.000001 0.000000 -0.000002 -0.000000 -0.000000 -6.339037 -4.403180 6.156793 26.525183 6.836083 1.152095 -14.792399 1.858383 -9.793842 -0.000000 0.000000 -0.000000 0.000000 -0.000000 -0.000000 14.317940 1.101236 2.560639 -4.344026 0.844258 -0.932464 -4.329081 0.772026 -1.030093 -0.099938 -1.689908 2.622606 -5.840853 -0.460651 -1.540121 -0.000000 0.000000 -0.000000 -0.000000 0.000000 -0.000000 -0.000000 0.000000 0.000000 -0.000000 0.000000 -0.000000 0.000000 0.000000 -0.000000 -0.000000 0.000000 -0.000000 0.000000 0.000000 -0.000000 -0.000000 0.000000 -0.000000 -0.000000 0.000000 -0.000000 2.370570 2.599464 -1.341546 -3.617897 -8.176065 -74.041696 12.004097 -10.529627 -9.010002 -0.379282 1.909359 11.577533 -4.982900 13.405727 11.311802 3.517455 8.486562 1.851611 -0.000001 -0.000001 -0.000001 0.380234 -6.145734 -25.284599 -0.033558 0.059266 -22.183935 0.000003 0.000002 0.000002 -0.682838 -5.541194 -29.068421 -0.000921 0.003730 -24.675170 0.000003 0.000001 0.000001 -1.915508 -6.193654 -34.198566 -0.015688 0.006027 -28.105486 0.000000 0.000001 -0.000001 -3.466217 -6.910128 -39.124570 -0.016328 0.011308 -31.381752 -0.000001 0.000001 0.000005 -0.000001 -0.000001 0.000000 3.460701 0.236092 4.393008 -1.475231 25.830797 70.377381 6.809918 19.851709 4.731831 -19.537850 0.955569 -12.165948 -0.783166 -20.555311 -5.075620 4.541304 -11.071259 -2.314938 0.000000 -0.000001 0.000001 0.748678 1.485540 23.202842 -0.020434 -0.054632 19.908374 0.000002 -0.000000 -0.000001 -0.253222 2.183953 25.524552 -0.000251 0.002733 21.457693 0.000001 0.000001 -0.000001 -1.284784 3.638242 29.547757 -0.022160 -0.009878 24.164514 -0.000003 -0.000002 -0.000001 -2.714521 5.335778 33.797449 0.000590 -0.012667 26.995337 -0.000001 0.000001 -0.000001 0.000005 -0.000001 0.000001 0.000000 0.000000 -0.000000 0.000000 0.000000 -0.000000 0.000000 0.000000 -0.000000 0.000000 0.000000 -0.000000 0.000000 0.000000 -0.000000 0.000000 0.000000 -0.000000 0.000000 0.000000 -0.000000 0.000000 0.000000 -0.000000 0.000000 0.000000 -0.000000 0.000000 0.000000 -0.000000 -0.000000 -0.000000 0.000000 -0.000000 -0.000000 0.000000 -0.000000 -0.000000 0.000000 
-0.182336 69.840271 3.713813 -1.886400 -1.978505 -2.081927 -0.000000 -0.000000 0.000000 -29.014586 6.072734 4.559989 52.644366 8.609183 0.862019 -8.117063 -0.228812 -6.887564 0.000001 -0.000001 0.000001 0.000001 -0.000001 -0.000000 -4.446276 -4.071202 5.843168 25.928573 8.582022 1.242636 -16.386925 2.296056 -10.230306 0.000000 -0.000000 -0.000000 0.000001 -0.000000 -0.000001 13.220060 1.908538 3.315049 -3.889079 1.720522 -1.752872 -3.963279 1.521676 -1.947960 -0.029220 -1.742402 3.501003 -6.185006 0.009363 -2.307178 0.000000 -0.000000 0.000000 0.000000 -0.000000 0.000000 0.000000 -0.000000 0.000000 0.000000 -0.000000 0.000000 0.000000 -0.000000 -0.000000 0.000000 -0.000000 0.000000 0.000000 -0.000000 -0.000000 0.000000 -0.000000 0.000000 0.000000 -0.000000 0.000000 2.342230 3.614619 -1.524770 -2.966087 -9.247766 -74.332040 8.967834 -9.287929 -10.218118 -0.245885 0.085383 12.864587 -4.931648 12.924992 11.993696 3.455069 7.954626 1.439884 -0.000000 0.000001 0.000001 0.395689 -5.840964 -24.219221 -0.028903 0.072525 -21.412686 0.000003 0.000001 -0.000002 -0.566437 -5.266885 -27.684732 0.047890 0.078627 -25.355943 0.000001 -0.000001 -0.000003 -1.699016 -5.701237 -32.575973 -0.014915 0.028804 -28.811268 -0.000001 0.000001 0.000000 -3.286036 -6.203032 -37.676546 -0.010951 0.020138 -31.256387 -0.000001 0.000000 0.000001 -0.000001 0.000000 -0.000000 3.457312 0.983796 4.647064 -1.449484 25.707422 68.535307 5.024552 24.710318 4.309910 -17.540612 -1.584061 -12.283939 -1.037966 -19.674078 -6.054708 4.427392 -10.471409 -1.954262 0.000002 0.000000 0.000003 0.678153 1.529483 22.479821 -0.018534 -0.066567 19.434012 -0.000004 -0.000002 -0.000002 -0.252591 2.162606 24.642597 0.035756 -0.060335 22.216719 -0.000000 0.000000 0.000001 -1.219109 3.377803 28.548178 -0.015191 -0.025022 24.994360 0.000001 -0.000002 0.000001 -2.684618 4.842795 32.983544 0.004775 -0.020725 27.181211 -0.000002 0.000001 -0.000001 0.000003 -0.000001 -0.000000 0.000000 -0.000000 0.000000 0.000000 -0.000000 0.000000 0.000000 -0.000000 0.000000 0.000000 -0.000000 0.000000 0.000000 -0.000000 0.000000 0.000000 -0.000000 0.000000 0.000000 -0.000000 0.000000 0.000000 -0.000000 0.000000 0.000000 -0.000000 0.000000 0.000000 -0.000000 0.000000 -0.000000 -0.000000 0.000000 -0.000000 -0.000000 0.000000 -0.000000 -0.000000 0.000000 
-0.254238 69.776367 6.079165 -1.911288 -2.647963 -2.322145 0.000000 0.000000 -0.000000 -28.526516 7.877330 3.981294 41.239538 13.309137 1.017680 -9.805138 -1.124783 -6.084982 -0.000000 -0.000001 0.000000 -0.000000 0.000000 -0.000000 -1.183267 -3.710888 6.095593 24.091935 8.687123 1.108864 -17.592887 2.866877 -10.101799 -0.000000 0.000000 0.000000 0.000000 -0.000001 -0.000000 12.922446 2.016869 2.956666 -3.524748 1.637751 -1.290607 -3.604479 1.494016 -1.482917 -0.428828 -1.125956 3.086532 -6.375554 0.718885 -2.996451 -0.000000 0.000000 -0.000000 -0.000000 0.000000 -0.000000 -0.000000 0.000000 -0.000000 -0.000000 0.000000 0.000000 -0.000000 0.000000 0.000000 -0.000000 0.000000 0.000000 -0.000000 0.000000 0.000000 -0.000000 0.000000 -0.000000 -0.000000 0.000000 -0.000000 2.370688 5.059711 -2.504906 -2.222507 -10.527300 -74.072876 5.914924 -8.206637 -11.420683 -0.050955 -1.917093 14.216675 -4.871194 12.395906 12.756994 3.384301 7.359900 0.981452 0.000000 -0.000001 0.000001 0.403257 -5.500257 -23.023349 -0.023788 0.088491 -20.543863 0.000002 0.000001 -0.000002 -0.452291 -4.954177 -26.133876 0.104421 0.160835 -26.117445 0.000000 0.000000 -0.000001 -1.490796 -5.137675 -30.761717 -0.014019 0.054407 -29.591685 -0.000003 0.000001 -0.000004 -3.127680 -5.403513 -36.053864 -0.002899 0.033501 -31.107509 0.000002 -0.000001 0.000001 0.000000 -0.000001 0.000000 3.407125 1.657936 4.480185 -1.972120 25.843341 67.099724 3.968666 28.421086 3.927887 -15.610160 -3.292243 -12.145355 -1.311558 -18.710072 -7.131366 4.302121 -9.813079 -1.557192 0.000001 -0.000001 0.000000 0.601453 1.580121 21.681478 -0.018311 -0.080426 18.911139 0.000000 -0.000001 -0.000002 -0.251801 2.138889 23.670352 0.077400 -0.128876 23.053606 0.000002 -0.000002 0.000002 -1.157230 3.087709 27.446584 -0.011056 -0.043420 25.908161 0.000000 0.000000 0.000002 -2.668212 4.298050 32.084879 0.007427 -0.030532 27.386579 0.000002 -0.000000 0.000002 -0.000000 -0.000002 0.000002 -0.000000 0.000000 -0.000000 0.000000 0.000000 -0.000000 -0.000000 0.000000 -0.000000 -0.000000 0.000000 -0.000000 -0.000000 0.000000 -0.000000 0.000000 0.000000 -0.000000 -0.000000 0.000000 -0.000000 -0.000000 0.000000 -0.000000 -0.000000 0.000000 -0.000000 0.000000 0.000000 -0.000000 0.000000 0.000000 -0.000000 0.000000 0.000000 -0.000000 0.000000 0.000000 -0.000000 
-0.344799 69.714142 8.492637 -2.094298 -2.955298 -2.687364 -0.000000 0.000000 0.000000 -29.707225 10.608450 4.412522 33.282761 14.933478 1.065128 -8.979292 -0.942498 -10.026545 0.000000 -0.000000 -0.000001 -0.000003 -0.000000 -0.000000 2.035201 -3.606938 6.396692 22.535987 8.686106 0.964135 -18.079962 3.212277 -9.432790 0.000000 -0.000000 0.000000 -0.000000 -0.000000 0.000000 13.021751 1.972713 2.545761 -3.293831 1.378066 -0.702780 -3.361729 1.319252 -0.870231 -0.858422 -0.454358 2.600927 -6.611562 1.485081 -3.736419 0.000000 0.000000 0.000000 0.000000 0.000000 0.000000 0.000000 0.000000 0.000000 0.000000 0.000000 0.000000 0.000000 0.000000 -0.000000 0.000000 0.000000 0.000000 0.000000 0.000000 -0.000000 0.000000 0.000000 0.000000 0.000000 0.000000 0.000000 2.433889 6.787287 -4.055120 -1.443430 -11.825439 -73.319062 3.171132 -7.483954 -12.510355 0.159444 -3.749610 15.470879 -4.802481 11.836780 13.579584 3.306677 6.719082 0.490128 -0.000000 0.000002 -0.000000 0.395345 -5.133792 -21.733527 -0.018568 0.106713 -19.606862 0.000001 -0.000000 -0.000000 -0.348667 -4.611362 -24.465277 0.167653 0.247512 -26.935230 0.000001 -0.000002 0.000002 -1.307042 -4.517572 -28.812555 -0.016254 0.082240 -30.424822 0.000002 0.000000 -0.000002 -3.008290 -4.534616 -34.306845 0.005632 0.047879 -30.941437 0.000001 0.000001 0.000003 -0.000000 -0.000000 -0.000000 3.345474 2.097676 4.204407 -2.802092 26.428379 65.838400 3.555352 31.038418 3.392301 -13.886635 -4.375193 -11.864015 -1.596351 -17.687005 -8.282209 4.165122 -9.103185 -1.131147 -0.000001 0.000000 0.000002 0.520809 1.636727 20.824837 -0.018015 -0.095324 18.350176 -0.000000 0.000000 -0.000001 -0.243742 2.112553 22.625688 0.124309 -0.201005 23.953089 0.000001 -0.000000 -0.000001 -1.103194 2.773934 26.264330 -0.016812 -0.065552 26.889746 0.000001 -0.000001 0.000002 -2.669480 3.712855 31.119670 0.009601 -0.041340 27.606940 0.000002 0.000001 0.000001 0.000001 0.000001 -0.000000 0.000000 -0.000000 0.000000 0.000000 -0.000000 0.000000 0.000000 -0.000000 0.000000 0.000000 -0.000000 0.000000 0.000000 -0.000000 0.000000 0.000000 -0.000000 0.000000 0.000000 -0.000000 0.000000 0.000000 -0.000000 0.000000 0.000000 -0.000000 0.000000 0.000000 -0.000000 0.000000 -0.000000 0.000000 0.000000 -0.000000 0.000000 0.000000 -0.000000 0.000000 0.000000 
